<?xml version="1.0" standalone="no"?>
<!DOCTYPE svg PUBLIC "-//W3C//DTD SVG 20010904//EN"
 "http://www.w3.org/TR/2001/REC-SVG-20010904/DTD/svg10.dtd">
<svg version="1.0" xmlns="http://www.w3.org/2000/svg"
 width="500.000000pt" height="500.000000pt" viewBox="0 0 500.000000 500.000000"
 preserveAspectRatio="xMidYMid meet">
<metadata>
Created by potrace 1.14, written by Peter Selinger 2001-2017
</metadata>
<g transform="translate(0.000000,500.000000) scale(0.100000,-0.100000)"
fill="#000000" stroke="none">
<path d="M2319 4746 c-2 -2 -35 -6 -74 -10 -194 -17 -460 -88 -650 -174 -405
-185 -729 -457 -969 -817 -141 -211 -260 -480 -311 -700 -4 -16 -9 -39 -12
-50 -7 -28 -29 -151 -38 -205 -13 -88 -13 -424 0 -540 88 -768 557 -1431 1251
-1770 200 -98 401 -160 669 -205 117 -19 393 -26 520 -13 560 60 1041 293
1416 686 416 435 635 991 623 1582 -1 91 -5 176 -8 190 -2 14 -7 52 -11 85 -4
32 -9 68 -11 80 -76 400 -226 729 -470 1034 -71 89 -212 233 -283 291 -24 19
-62 50 -85 69 -110 92 -337 224 -511 299 -135 58 -328 116 -455 137 -19 3 -48
8 -65 11 -16 3 -48 7 -70 10 -47 6 -451 15 -456 10z m-846 -1046 c3 -3 7 -18
10 -35 3 -16 26 -133 52 -260 25 -126 47 -238 48 -247 1 -16 25 -23 127 -33
19 -1 53 -5 75 -8 22 -3 60 -8 85 -11 25 -3 65 -8 90 -11 25 -3 63 -7 85 -10
22 -3 78 -10 125 -15 47 -6 101 -12 120 -15 74 -9 127 -15 175 -20 28 -3 84
-10 125 -15 41 -5 98 -12 125 -15 28 -3 64 -8 80 -10 61 -8 131 -16 180 -21
27 -3 61 -7 75 -9 14 -2 70 -9 125 -15 55 -6 111 -13 125 -16 14 -2 50 -6 81
-9 31 -3 64 -7 75 -9 10 -2 53 -7 94 -12 41 -4 78 -9 83 -10 4 -1 23 -2 43 -3
40 -1 38 5 19 -81 -3 -17 -51 -197 -96 -368 -17 -62 -32 -120 -34 -130 -18
-83 -119 -448 -125 -452 -5 -3 -365 -5 -800 -5 l-792 0 6 -40 c3 -22 8 -50 10
-62 2 -11 8 -42 11 -67 4 -25 12 -46 19 -47 6 0 335 -2 731 -3 396 -1 734 -6
750 -11 38 -10 123 -65 152 -96 12 -13 34 -49 50 -79 24 -48 28 -66 28 -140 0
-71 -4 -94 -26 -140 -34 -71 -89 -125 -162 -160 -48 -23 -71 -28 -136 -28 -65
0 -87 5 -139 29 -124 60 -197 185 -186 323 5 59 3 66 -13 67 -24 1 -895 1
-908 0 -7 -1 -9 -19 -5 -48 17 -147 -55 -279 -189 -345 -68 -33 -205 -33 -276
2 -150 73 -224 253 -170 410 28 78 123 172 199 196 42 13 55 22 52 33 -3 9 -8
34 -11 56 -4 32 -72 385 -90 470 -3 11 -14 67 -25 125 -11 58 -22 114 -24 125
-3 11 -16 76 -31 145 -14 69 -32 159 -40 200 -8 41 -17 84 -19 95 -2 11 -30
148 -61 305 -32 157 -61 289 -65 293 -4 4 -68 8 -143 8 l-137 1 0 116 0 117
234 0 c129 0 237 -2 239 -5z"/>
<path d="M1636 1367 c-43 -56 -29 -118 30 -143 45 -19 78 -12 110 23 55 59 9
153 -75 153 -34 0 -44 -5 -65 -33z"/>
<path d="M3216 1374 c-34 -35 -35 -87 -2 -129 19 -24 31 -30 65 -30 95 0 129
112 53 173 -28 22 -86 15 -116 -14z"/>
</g>
</svg>
